<?xml version="1.0" encoding="utf-8"?><svg xmlns="http://www.w3.org/2000/svg" xmlns:xlink="http://www.w3.org/1999/xlink"><symbol viewBox="0 0 344.96 344.96" id="check" xmlns="http://www.w3.org/2000/svg"><g data-name="Слой 2"><path d="M321.85 86.24l-40-23.11-23.1-40H212.5L172.48 0l-40 23.11H86.24l-23.11 40-40 23.1v46.21L0 172.48l23.11 40v46.21l40 23.11 23.11 40h46.21l40 23.1 40-23.11h46.21l23.11-40 40-23.11V212.5l23.11-40-23.11-40V86.24zM156.91 243.07a16.79 16.79 0 0 1-23.34 0l-50.45-50.44a16.19 16.19 0 0 1 0-22.89l13.35-13.35a16.19 16.19 0 0 1 22.89 0l25.87 25.87 80.34-80.35a16.19 16.19 0 0 1 22.89 0l13.35 13.35a16.19 16.19 0 0 1 0 22.89z" data-name="Capa 1"/></g></symbol><symbol viewBox="0 0 512 512" id="check-mark" xmlns="http://www.w3.org/2000/svg"><path d="M369.2 174.8c7.8 7.8 7.8 20.5 0 28.3L235 337.2c-7.8 7.8-20.5 7.8-28.3 0l-63.9-63.9c-7.8-7.8-7.8-20.5 0-28.3 7.8-7.8 20.5-7.8 28.3 0l49.7 49.7 120-120c7.9-7.7 20.6-7.7 28.4.1zM512 256c0 141.5-114.5 256-256 256S0 397.5 0 256 114.5 0 256 0s256 114.5 256 256zm-40 0c0-119.4-96.6-216-216-216S40 136.6 40 256s96.6 216 216 216 216-96.6 216-216z"/></symbol><symbol viewBox="0 0 480 480" id="clean-1" xmlns="http://www.w3.org/2000/svg"><path d="M456 288h-72V168h72c4.4 0 8-3.6 8-8v-39.4L479.9 9.1c.6-4.4-2.4-8.4-6.8-9.1H248c-4.4 0-8 3.6-8 8 0 .4 0 .8.1 1.1L256 120.6V160c0 4.4 3.6 8 8 8h72v120h-8c-13.3 0-24 10.7-24 24s10.7 24 24 24h8v16h-56l7.5-112h8.5c4.4 0 8-3.6 8-8v-32c0-4.4-3.6-8-8-8h-56.6c-2.5-17.3-13-32.5-28.3-41 12.7-28.2.1-61.4-28.1-74-28.2-12.7-61.4-.1-74 28.1-2.2 4.9-3.7 10.1-4.4 15.4-43.9-4.7-83.3 27-88 70.8 0 .2 0 .5-.1.7H8c-4.4 0-8 3.6-8 8v32c0 4.4 3.6 8 8 8h8.5L32 472.5c.3 4.2 3.8 7.5 8 7.5h432c4.4 0 8-3.6 8-8V312c0-13.3-10.7-24-24-24zM257.2 16H288v48h16V16h16v16h16V16h48v24h16V16h16v48h16V16h30.8l-13.7 96H270.9l-13.7-96zM272 152v-24h176v24H272zm96 16v120h-16V168h16zm-80 40v16H168v-16h120zm-184.2-71.5c2.2.3 4.4.7 6.5 1.2h.3c9.4 2.2 18.2 6.5 25.7 12.6l10.1-12.4c-7.7-6.2-16.5-10.9-25.9-13.9 2.3-21.9 21.9-37.8 43.8-35.5 21.9 2.3 37.8 21.9 35.5 43.8-.7 6.5-2.9 12.7-6.6 18.1-2.5 3.7-1.5 8.6 2.2 11.1.6.4 1.2.7 1.8.9 13.2 4.7 23.1 15.9 25.9 29.7H160c-4.4 0-8 3.6-8 8v72c0 4.4-3.6 8-8 8s-8-3.6-8-8v-16c0-13.3-10.7-24-24-24s-24 10.7-24 24v56c0 4.4-3.6 8-8 8s-8-3.6-8-8V200c0-4.4-3.6-8-8-8H32.5c4.4-35 36.3-59.8 71.3-55.5zM16 224v-16h40v16H16zm208 152v88H47.5L32.6 240H56v72c0 13.3 10.7 24 24 24s24-10.7 24-24v-56c0-4.4 3.6-8 8-8s8 3.6 8 8v16c0 13.3 10.7 24 24 24s24-10.7 24-24v-32h103.4L264 352h-16c-13.3 0-24 10.7-24 24zm240 88h-24v-40h-16v40h-24v-40h-16v40h-24v-40h-16v40h-24v-40h-16v40h-24v-40h-16v40h-24v-64h224v64zm0-80H240v-8c0-4.4 3.6-8 8-8h176c13.3 0 24-10.7 24-24s-10.7-24-24-24h-96c-4.4 0-8-3.6-8-8s3.6-8 8-8h128c4.4 0 8 3.6 8 8v72zm-112-32v-16h16v16h-16zm32 0v-16h40c4.4 0 8 3.6 8 8s-3.6 8-8 8h-40zM32 80V64H16v16H0v16h16v16h16V96h16V80z"/><path d="M456 224v-16h-16v16h-16v16h16v16h16v-16h16v-16zM152 16V0h-16v16h-16v16h16v16h16V32h16V16zm136 64h16v16h-16z"/></symbol><symbol viewBox="0 0 480 480" id="clean-2" xmlns="http://www.w3.org/2000/svg"><path d="M367.2 59.6c1.3-2.6 1.1-5.6-.5-8l-32-48c-1.5-2.2-4-3.6-6.7-3.6H152c-4.4 0-8 3.6-8 8v8h-24c-4.4 0-8 3.6-8 8v32c0 4.4 3.6 8 8 8h24v8c0 4.4 3.6 8 8 8h57.9c-9.5 13.9-22.4 25.2-37.5 32.8l7.2 14.3c18.6-9.4 34.4-23.6 45.6-41.2l30.8 37V152h-16c-4.4 0-8 3.6-8 8v29.4l-98.7 136.7c-3.5 4.8-5.3 10.5-5.3 16.4V452c0 15.5 12.5 28 28 28h176c15.5 0 28-12.5 28-28V160c0-4.4-3.6-8-8-8h-16v-30.1l31.2-62.3zM144 48h-16V32h16v16zm200 404c0 6.6-5.4 12-12 12H156c-6.6 0-12-5.4-12-12V342.5c0-2.5.8-5 2.3-7L221 232h75v-16h-63.5l11.6-16H344v252zm0-284v16h-96v-16h96zm-23.2-51.6c-.5 1.1-.8 2.3-.8 3.6v32h-48v-32c0-1.9-.7-3.7-1.9-5.1l-40-48c-1.5-1.8-3.8-2.9-6.1-2.9h-64V16h163.7l27 40.6-29.9 59.8z"/><path d="M312 216h16v16h-16zm0 80H208c-2.7 0-5.2 1.3-6.7 3.6l-32 48c-.9 1.3-1.3 2.9-1.3 4.4v80c0 4.4 3.6 8 8 8h136c4.4 0 8-3.6 8-8V304c0-4.4-3.6-8-8-8zm-8 128H184v-28.7l13.7-13.7c10.3-9.8 26.4-9.8 36.7 0 16.4 16.4 42.9 16.4 59.3 0 2.9-2.9 6.5-5 10.3-6.2V424zm0-65.2c-8.2 1.6-15.8 5.6-21.7 11.5-10.1 10.1-26.5 10.1-36.7 0-16.4-16.4-42.9-16.4-59.3 0l-2.3 2.3v-18.3l28.3-42.4H304v46.9z"/></symbol><symbol viewBox="0 0 512 512" id="clean-3" xmlns="http://www.w3.org/2000/svg"><path d="M256 81c5.4 0 9.8-4.3 10-9.6V71c0-5.5-4.5-10-10-10s-10 4.5-10 10v.4c.2 5.3 4.6 9.6 10 9.6zm30 185c33.1 0 60-26.8 60-60 0-33.1-26.9-60-60-60h-90c-5.5 0-10 4.5-10 10v90h-10c-5.5 0-10 4.5-10 10s4.5 10 10 10h10v40h-10c-5.5 0-10 4.5-10 10s4.5 10 10 10h10v50c0 5.5 4.5 10 10 10s10-4.5 10-10v-50h70c5.5 0 10-4.5 10-10s-4.5-10-10-10h-70v-40h80zm-80-100h80c22.1 0 40 17.9 40 40s-17.9 40-40 40h-80v-80z"/><path d="M256 512c137.9 0 256-118.1 256-256C512 118.4 394.1 0 256 0 118.1 0 0 118.1 0 256c0 137.8 118.1 256 256 256zm0-492c125.7 0 236 110.3 236 236S381.7 492 256 492 20 381.7 20 256 130.3 20 256 20z"/><path d="M256 452c104.2 0 196-91.1 196-196 0-89-66.8-170.4-153.9-191-5.4-1.3-10.8 2-12 7.4-1.3 5.4 2 10.8 7.4 12C372.5 103.2 432 176.9 432 256c0 93.8-82.2 176-176 176S80 349.8 80 256c0-79.1 59.5-152.8 138.5-171.6 5.4-1.3 8.7-6.7 7.4-12-1.3-5.4-6.7-8.7-12-7.4C126.9 85.6 60 166.9 60 256c0 104.2 91.1 196 196 196z"/></symbol><symbol viewBox="0 0 512 512" id="clean-4" xmlns="http://www.w3.org/2000/svg"><path d="M448 48h-48c-22.1 0-40 17.9-40 40v24H8v352h440c30.9 0 56-25.1 56-56V104c0-30.9-25.1-56-56-56zM120 297.9L63.6 264l56.4-33.9v67.8zm0 96L63.6 360l56.4-33.9v67.8zm0-192l-64-38.4V160h64v41.9zm-64-19.8l56.4 33.9L56 249.9v-67.8zm0 96l56.4 33.9L56 345.9v-67.8zm0 96l64 38.4v3.5H56v-41.9zM136 160h16v256h-16V160zm112 101.6l-40-60-40 60v-35.2l40-60 40 60v35.2zm-1.6 26.4L208 345.6 169.6 288l38.4-57.6 38.4 57.6zM168 314.4l40 60 40-60v35.2l-40 60-40-60v-35.2zm80-116.8L222.9 160H248v37.6zm-80 0V160h25.1L168 197.6zm0 180.8l25.1 37.6H168v-37.6zm80 0V416h-25.1l25.1-37.6zM264 160h16v256h-16V160zm32 70.1l56.4 33.9-56.4 33.9v-67.8zm0 96l56.4 33.9-56.4 33.9v-67.8zm64 19.8L303.6 312l56.4-33.9v67.8zm0-96L303.6 216l56.4-33.9v67.8zm0-86.4l-64 38.4V160h64v3.5zm-64 249l64-38.4V392c0 9 3.1 17.3 8.2 24H296v-3.5zm80-20.5c0-13.2 10.8-24 24-24h24v48h-24c-13.2 0-24-10.8-24-24zm72 56H24V128h336v16H40v288h400v-64h8c22.1 0 40 17.9 40 40s-17.9 40-40 40zm0-96h-48c-9 0-17.3 3.1-24 8.2V88c0-13.2 10.8-24 24-24h48c22.1 0 40 17.9 40 40v264.9c-10.2-10.4-24.3-16.9-40-16.9z"/><path d="M184 288c0 13.2 10.8 24 24 24s24-10.8 24-24-10.8-24-24-24-24 10.8-24 24zm32 0c0 4.4-3.6 8-8 8s-8-3.6-8-8 3.6-8 8-8 8 3.6 8 8zm240-88h16v16h-16v-16zm-8-120h-24v16h24c4.4 0 8 3.6 8 8v80h16v-80c0-13.2-10.8-24-24-24z"/></symbol><symbol viewBox="0 0 512 512" id="clean-5" xmlns="http://www.w3.org/2000/svg"><path d="M476.2 231.4l-13.3-53c3.6-.8 6.3-4 6.3-7.8V162c0-18.6-15.1-33.7-33.7-33.7h-60.4v-17.6c0-9.1-7.4-16.6-16.6-16.6H50.8c-9.1 0-16.6 7.4-16.6 16.6V256c0 4.4 3.6 8 8 8s8-3.6 8-8V110.6c0-.3.2-.5.5-.5h307.8c.3 0 .5.2.5.5V256c0 4.4 3.6 8 8 8s8-3.6 8-8v-9.1h94.6c11.6 0 21.5 7.6 24.9 18.2h-24.9c-4.4 0-8 3.6-8 8v17.1c0 13.9 11.3 25.1 25.1 25.1h9.1v35.3h-21c-6.9-19.9-25.8-34.2-48-34.2s-41.1 14.3-48 34.2h-3.9v-60.4c0-4.4-3.6-8-8-8s-8 3.6-8 8v60.4H192.8c-6.9-19.9-25.8-34.2-48-34.2s-41.1 14.3-48 34.2h-46c-.3 0-.5-.2-.5-.5v-17.6H85c4.4 0 8-3.6 8-8s-3.6-8-8-8H8c-4.4 0-8 3.6-8 8s3.6 8 8 8h26.2v17.6c0 9.1 7.4 16.6 16.6 16.6h43.3v.5c0 28 22.8 50.8 50.8 50.8s50.8-22.8 50.8-50.8v-.5h180.7v.5c0 28 22.8 50.8 50.8 50.8s50.8-22.8 50.8-50.8v-.5h26c4.4 0 8-3.6 8-8v-85.5c0-21.2-15.6-38.8-35.8-41.8zm-101-87.1h60.4c9.7 0 17.6 7.9 17.6 17.6v.5h-78v-18.1zm0 86.6v-52.4h71.2l13.1 52.4h-84.3zm-230.4 171c-19.2 0-34.7-15.6-34.7-34.7s15.6-34.7 34.7-34.7 34.7 15.6 34.7 34.7-15.5 34.7-34.7 34.7zm282.2 0c-19.2 0-34.7-15.6-34.7-34.7s15.6-34.7 34.7-34.7c19.2 0 34.7 15.6 34.7 34.7s-15.5 34.7-34.7 34.7zm69-102.6h-9.1c-5 0-9.1-4.1-9.1-9.1v-9.1H496v18.2z"/><path d="M144.8 350.6c-9.1 0-16.6 7.4-16.6 16.6s7.4 16.6 16.6 16.6c9.1 0 16.6-7.4 16.6-16.6 0-9.2-7.4-16.6-16.6-16.6zm282.2 0c-9.1 0-16.6 7.4-16.6 16.6s7.4 16.6 16.6 16.6 16.6-7.4 16.6-16.6-7.4-16.6-16.6-16.6zm-94-34.2H213.2c-4.4 0-8 3.6-8 8s3.6 8 8 8H333c4.4 0 8-3.6 8-8s-3.6-8-8-8zm-205.3-34.2H25.1c-4.4 0-8 3.6-8 8s3.6 8 8 8h102.6c4.4 0 8-3.6 8-8s-3.5-8-8-8zm151.1-108.8c-3.1-3.1-8.2-3.1-11.3 0l-71.3 71.3-37.1-37.1c-3.1-3.1-8.2-3.1-11.3 0-3.1 3.1-3.1 8.2 0 11.3l42.8 42.8c1.6 1.6 3.6 2.3 5.7 2.3s4.1-.8 5.7-2.3l77-77c2.9-3.1 2.9-8.2-.2-11.3z"/></symbol><symbol viewBox="0 0 19 15" id="email" xmlns="http://www.w3.org/2000/svg"><path d="M19 3.168v9.667c0 1.262-1.042 2.29-2.324 2.29H2.323C1.042 15.125 0 14.097 0 12.835v-9.67C0 1.9 1.042.874 2.323.874H16.68c1.282 0 2.324 1.03 2.32 2.293zm-1.062 9.667V3.168c0-.686-.566-1.244-1.262-1.244H2.323c-.696 0-1.262.558-1.262 1.244v9.667c0 .685.566 1.243 1.262 1.243H16.68c.696 0 1.262-.558 1.262-1.243zm-1.29-.59a.52.52 0 0 1 .02.74.531.531 0 0 1-.385.164.53.53 0 0 1-.365-.144L11.192 8.58 9.867 9.75a.532.532 0 0 1-.707.005L7.87 8.619 3.117 13a.532.532 0 0 1-.361.139.547.547 0 0 1-.39-.165.52.52 0 0 1 .024-.741l4.682-4.32-4.702-4.14a.518.518 0 0 1-.043-.741.536.536 0 0 1 .751-.042l5.087 4.486c.032.023.06.047.087.074 0 .004.004.008.007.012l1.25 1.1 6.409-5.668a.54.54 0 0 1 .75.038.521.521 0 0 1-.039.74L11.982 7.88z"/><path d="M19 3.168v9.667c0 1.262-1.042 2.29-2.324 2.29H2.323C1.042 15.125 0 14.097 0 12.835v-9.67C0 1.9 1.042.874 2.323.874H16.68c1.282 0 2.324 1.03 2.32 2.293zm-1.062 9.667V3.168c0-.686-.566-1.244-1.262-1.244H2.323c-.696 0-1.262.558-1.262 1.244v9.667c0 .685.566 1.243 1.262 1.243H16.68c.696 0 1.262-.558 1.262-1.243zm-1.29-.59a.52.52 0 0 1 .02.74.531.531 0 0 1-.385.164.53.53 0 0 1-.365-.144L11.192 8.58 9.867 9.75a.532.532 0 0 1-.707.005L7.87 8.619 3.117 13a.532.532 0 0 1-.361.139.547.547 0 0 1-.39-.165.52.52 0 0 1 .024-.741l4.682-4.32-4.702-4.14a.518.518 0 0 1-.043-.741.536.536 0 0 1 .751-.042l5.087 4.486c.032.023.06.047.087.074 0 .004.004.008.007.012l1.25 1.1 6.409-5.668a.54.54 0 0 1 .75.038.521.521 0 0 1-.039.74L11.982 7.88z"/></symbol><symbol id="error" viewBox="0 0 50 50" xml:space="preserve" xmlns="http://www.w3.org/2000/svg"><style>.ist1{fill:none;stroke:#fff;stroke-width:2;stroke-linecap:round;stroke-miterlimit:10}</style><circle cx="25" cy="25" r="25"/><path class="ist1" d="M16 34l9-9 9-9m-18 0l9 9 9 9"/></symbol><symbol viewBox="0 0 485.2 485.2" id="mail2" xmlns="http://www.w3.org/2000/svg"><path d="M485.2 363.9c0 10.6-3 20.5-7.8 29.2L324.2 221.7 475.8 89.1c5.9 9.4 9.4 20.3 9.4 32.2v242.6zM242.6 252.8L453.5 68.3c-8.7-4.7-18.4-7.6-28.9-7.6H60.7c-10.5 0-20.3 2.9-28.9 7.6l210.8 184.5zm58.8-11.2l-48.8 42.7c-2.9 2.5-6.4 3.7-10 3.7-3.6 0-7.1-1.2-10-3.7l-48.8-42.7L28.7 415.2c9.3 5.8 20.2 9.3 32 9.3h363.9c11.8 0 22.7-3.5 32-9.3L301.4 241.6zM9.4 89.1C3.6 98.4 0 109.4 0 121.3v242.6c0 10.6 3 20.5 7.8 29.2L161 221.6 9.4 89.1z"/></symbol><symbol viewBox="0 0 24 24" id="plus" xmlns="http://www.w3.org/2000/svg"><path d="M23 10h-8.5c-.3 0-.5-.2-.5-.5V1c0-.6-.4-1-1-1h-2c-.6 0-1 .4-1 1v8.5c0 .3-.2.5-.5.5H1c-.6 0-1 .4-1 1v2c0 .6.4 1 1 1h8.5c.3 0 .5.2.5.5V23c0 .6.4 1 1 1h2c.6 0 1-.4 1-1v-8.5c0-.3.2-.5.5-.5H23c.6 0 1-.4 1-1v-2c0-.6-.4-1-1-1z"/></symbol><symbol viewBox="0 0 26 26" id="question" xmlns="http://www.w3.org/2000/svg"><path d="M14 22h-2c-.6 0-1 .4-1 1v2c0 .6.4 1 1 1h2c.6 0 1-.4 1-1v-2c0-.6-.4-1-1-1zM13 0C8 0 4 4 4 9c0 .5 0 1 .1 1.5.1.6.7.9 1.3.8l1.9-.6c.5-.1.8-.6.7-1.1V9c0-2.8 2.2-5 5-5s5 2.2 5 5c0 1.7-1 2.5-2.8 4-1.7 1.4-3.7 3-4.2 5.9-.1.6.4 1.1 1 1.1h2c.5 0 .9-.3 1-.8.3-1.2 1.2-2 2.7-3.1C19.6 14.6 22 12.7 22 9c0-5-4-9-9-9z"/></symbol><symbol viewBox="0 0 475 475" id="tap" xmlns="http://www.w3.org/2000/svg"><path d="M377.7 187.3h-.7c-9.1-.1-17.9 3.3-24.7 9.4-5.5-15.2-19.4-26.1-35.8-26.1-10 .1-19.6 4.2-26.5 11.4-6.4-12.9-19.2-21.7-33.9-21.7h-.7c-7.9-.1-15.6 2.4-21.8 7.3v-92c0-22.2-17.3-40.3-38.4-40.3-21 0-38.3 18.1-38.3 40.3l-.2 182.6-10.3-12.5c-9.1-11.3-22.4-18.3-36.8-19.3-14.1-1-28 3.9-38.4 13.6l-9 7.4c-2.9 2.4-3.7 6.5-2 9.8l87.4 168c16 30.7 46.4 49.9 79.4 49.9h98.5v-.1c49.9 0 90.4-43.3 90.5-96.5 0-23.8-.1-41.6-.1-55.9.1-38.5 0-52.7-.1-95.1.1-22.3-17.1-40.2-38.1-40.2zM400 322.4c0 14.4 0 32.2-.1 56 0 44.4-33.6 80.6-74.7 80.6h-98c-27 0-52-15.9-65.2-41.3L77.6 255.5l4.2-3.5.3-.3c7.2-6.7 16.8-10.2 26.6-9.6 10 .8 19.3 5.7 25.6 13.5l24.5 29.8c2.1 2.6 5.7 3.6 8.9 2.5s5.3-4.1 5.3-7.5V75.6c0-13.4 10.2-24.3 22.4-24.3s22.4 10.9 22.4 24.3v178.2c0 4.4 3.6 8 8 8s8-3.6 8-8v-54.4c0-12.9 9.9-23.1 21.8-23.1h.7c12.2 0 22.4 10.7 22.4 24.1v48.3c0 4.4 3.6 8 8 8s8-3.6 8-8v-37.9c0-13.4 9.7-24.3 22-24.3 12.2 0 21.9 10.9 21.9 24.3v35.8c0 4.4 3.6 8 8 8s8-3.6 8-8v-19.4c0-13.4 10.2-23.9 22.5-23.9h.7c12.2 0 22.2 10.7 22.2 24.1v95z"/><path d="M131.7 79.1c4.4 0 8-3.6 8-8 .1-30.5 24.9-55.1 55.4-55.1s55.2 24.6 55.4 55.1c0 4.4 3.6 8 8 8s8-3.6 8-8C266.3 31.8 234.4 0 195.1 0c-39.3 0-71.2 31.8-71.4 71.1 0 4.4 3.6 8 8 8z"/></symbol><symbol viewBox="0 0 16 16" id="tel" xmlns="http://www.w3.org/2000/svg"><path d="M11.914 16.011a4.25 4.25 0 0 1-.228-.007c-1.262-.08-2.358-.534-3.174-.921a16.201 16.201 0 0 1-5.396-4.218l-.001-.001C1.876 9.376 1.038 7.977.478 6.461.096 5.433-.052 4.565.016 3.732A3.045 3.045 0 0 1 .924 1.78L2.052.652c.957-.911 2.29-.89 3.19-.007.199.183.417.404.625.62l1.2 1.202c.47.465.72 1.024.72 1.613 0 .584-.249 1.143-.72 1.613l-.268.272c-.14.143-.282.286-.427.429.152.26.344.535.593.85.799.976 1.634 1.738 2.547 2.317.029.018.059.035.09.052l.694-.692c.922-.921 2.313-.912 3.203.013l1.805 1.802c.933.931.94 2.252.018 3.212a216.829 216.829 0 0 1-1.069 1.086c-.575.63-1.381.977-2.34.977zm-2.758-2.274c.735.35 1.623.716 2.6.779l.158.003c.538 0 .935-.166 1.283-.536l.045-.05s.864-.874 1.002-1.018c.252-.262.458-.67.004-1.123l-1.814-1.813c-.357-.37-.731-.354-1.083-.004l-1.08 1.08a.748.748 0 0 1-.902.119c-.086-.05-.175-.094-.259-.136a4.76 4.76 0 0 1-.4-.219c-1.049-.665-2-1.53-2.91-2.643-.488-.617-.804-1.122-1.03-1.647a.745.745 0 0 1 .184-.848c.272-.246.527-.504.773-.756l.284-.286c.129-.129.283-.33.283-.559 0-.23-.152-.429-.28-.555l-1.22-1.223c-.19-.196-.388-.398-.584-.578-.373-.363-.752-.352-1.115-.004L1.979 2.835a1.569 1.569 0 0 0-.475 1.017c-.048.607.07 1.272.375 2.091.5 1.354 1.257 2.613 2.382 3.964a14.718 14.718 0 0 0 4.896 3.83z"/><path d="M11.914 16.011a4.25 4.25 0 0 1-.228-.007c-1.262-.08-2.358-.534-3.174-.921a16.201 16.201 0 0 1-5.396-4.218l-.001-.001C1.876 9.376 1.038 7.977.478 6.461.096 5.433-.052 4.565.016 3.732A3.045 3.045 0 0 1 .924 1.78L2.052.652c.957-.911 2.29-.89 3.19-.007.199.183.417.404.625.62l1.2 1.202c.47.465.72 1.024.72 1.613 0 .584-.249 1.143-.72 1.613l-.268.272c-.14.143-.282.286-.427.429.152.26.344.535.593.85.799.976 1.634 1.738 2.547 2.317.029.018.059.035.09.052l.694-.692c.922-.921 2.313-.912 3.203.013l1.805 1.802c.933.931.94 2.252.018 3.212a216.829 216.829 0 0 1-1.069 1.086c-.575.63-1.381.977-2.34.977zm-2.758-2.274c.735.35 1.623.716 2.6.779l.158.003c.538 0 .935-.166 1.283-.536l.045-.05s.864-.874 1.002-1.018c.252-.262.458-.67.004-1.123l-1.814-1.813c-.357-.37-.731-.354-1.083-.004l-1.08 1.08a.748.748 0 0 1-.902.119c-.086-.05-.175-.094-.259-.136a4.76 4.76 0 0 1-.4-.219c-1.049-.665-2-1.53-2.91-2.643-.488-.617-.804-1.122-1.03-1.647a.745.745 0 0 1 .184-.848c.272-.246.527-.504.773-.756l.284-.286c.129-.129.283-.33.283-.559 0-.23-.152-.429-.28-.555l-1.22-1.223c-.19-.196-.388-.398-.584-.578-.373-.363-.752-.352-1.115-.004L1.979 2.835a1.569 1.569 0 0 0-.475 1.017c-.048.607.07 1.272.375 2.091.5 1.354 1.257 2.613 2.382 3.964a14.718 14.718 0 0 0 4.896 3.83z"/></symbol><symbol viewBox="0 0 18 18" id="tel2" xmlns="http://www.w3.org/2000/svg"><path d="M16.322 13.25c.384.381.586.834.586 1.306 0 .468-.198.924-.575 1.316a14.8 14.8 0 0 1-.494.49c-.24.234-.468.45-.666.69-.004.008-.012.011-.015.019-.579.628-1.317.943-2.196.943a4.95 4.95 0 0 1-.24-.007c-1.304-.083-2.472-.574-3.347-.988a17.912 17.912 0 0 1-5.962-4.67C2.039 10.697 1.119 9.155.503 7.493.25 6.815-.078 5.78.014 4.669a2.788 2.788 0 0 1 .826-1.77l1.293-1.305.008-.008c.38-.365.83-.559 1.293-.559.465 0 .906.194 1.275.56.247.228.487.47.715.708.114.121.236.243.354.36l1.039 1.039c.799.8.799 1.836 0 2.634l-.32.324c-.281.285-.57.582-.882.868.232.513.551 1.019 1.027 1.62.981 1.206 2.005 2.139 3.131 2.855.11.068.24.133.377.202.095.049.194.098.293.152l1.202-1.2c.384-.383.833-.585 1.301-.585.472 0 .917.205 1.286.59zm-.73.72l-2.097-2.097-.008-.007c-.118-.13-.312-.278-.548-.278-.24 0-.445.155-.574.285l-1.301 1.302c-.065.064-.263.261-.578.261a.822.822 0 0 1-.377-.094c-.015-.008-.03-.02-.046-.027a4.784 4.784 0 0 0-.377-.201c-.152-.077-.311-.156-.467-.255-1.222-.773-2.329-1.78-3.379-3.075l-.004-.003c-.578-.736-.959-1.352-1.229-2.007l-.011-.034c-.069-.217-.13-.536.198-.864.004-.007.011-.011.019-.02.33-.295.635-.6.955-.928.11-.105.217-.216.327-.327.403-.403.403-.776 0-1.178l-1.039-1.04c-.121-.126-.243-.248-.361-.37-.232-.24-.453-.464-.685-.68L4 2.32c-.122-.122-.316-.266-.556-.266-.194 0-.392.095-.578.27L1.567 3.622a1.747 1.747 0 0 0-.525 1.13c-.057.697.073 1.436.427 2.383.574 1.552 1.442 3 2.739 4.563a16.914 16.914 0 0 0 5.615 4.399c.788.376 1.838.818 2.968.89.057.005.118.005.175.005.594 0 1.046-.195 1.43-.605a9.78 9.78 0 0 1 .735-.76c.164-.161.316-.306.464-.466-.004.004-.004 0 0 0 .388-.403.388-.803-.004-1.191zM9.313 3.68a.516.516 0 0 1 .593-.418 5.863 5.863 0 0 1 3.177 1.647 5.87 5.87 0 0 1 1.647 3.177.514.514 0 0 1-.422.594c-.03.003-.057.007-.087.007a.51.51 0 0 1-.506-.426 4.855 4.855 0 0 0-1.362-2.626 4.825 4.825 0 0 0-2.626-1.361.509.509 0 0 1-.414-.595zm8.26 4.844c-.03.003-.058.007-.088.007a.51.51 0 0 1-.506-.425 8.624 8.624 0 0 0-2.424-4.678A8.645 8.645 0 0 0 9.88 1.004.516.516 0 0 1 9.457.41a.512.512 0 0 1 .59-.418 9.65 9.65 0 0 1 5.231 2.714 9.659 9.659 0 0 1 2.713 5.23.504.504 0 0 1-.418.588z"/><path d="M16.322 13.25c.384.381.586.834.586 1.306 0 .468-.198.924-.575 1.316a14.8 14.8 0 0 1-.494.49c-.24.234-.468.45-.666.69-.004.008-.012.011-.015.019-.579.628-1.317.943-2.196.943a4.95 4.95 0 0 1-.24-.007c-1.304-.083-2.472-.574-3.347-.988a17.912 17.912 0 0 1-5.962-4.67C2.039 10.697 1.119 9.155.503 7.493.25 6.815-.078 5.78.014 4.669a2.788 2.788 0 0 1 .826-1.77l1.293-1.305.008-.008c.38-.365.83-.559 1.293-.559.465 0 .906.194 1.275.56.247.228.487.47.715.708.114.121.236.243.354.36l1.039 1.039c.799.8.799 1.836 0 2.634l-.32.324c-.281.285-.57.582-.882.868.232.513.551 1.019 1.027 1.62.981 1.206 2.005 2.139 3.131 2.855.11.068.24.133.377.202.095.049.194.098.293.152l1.202-1.2c.384-.383.833-.585 1.301-.585.472 0 .917.205 1.286.59zm-.73.72l-2.097-2.097-.008-.007c-.118-.13-.312-.278-.548-.278-.24 0-.445.155-.574.285l-1.301 1.302c-.065.064-.263.261-.578.261a.822.822 0 0 1-.377-.094c-.015-.008-.03-.02-.046-.027a4.784 4.784 0 0 0-.377-.201c-.152-.077-.311-.156-.467-.255-1.222-.773-2.329-1.78-3.379-3.075l-.004-.003c-.578-.736-.959-1.352-1.229-2.007l-.011-.034c-.069-.217-.13-.536.198-.864.004-.007.011-.011.019-.02.33-.295.635-.6.955-.928.11-.105.217-.216.327-.327.403-.403.403-.776 0-1.178l-1.039-1.04c-.121-.126-.243-.248-.361-.37-.232-.24-.453-.464-.685-.68L4 2.32c-.122-.122-.316-.266-.556-.266-.194 0-.392.095-.578.27L1.567 3.622a1.747 1.747 0 0 0-.525 1.13c-.057.697.073 1.436.427 2.383.574 1.552 1.442 3 2.739 4.563a16.914 16.914 0 0 0 5.615 4.399c.788.376 1.838.818 2.968.89.057.005.118.005.175.005.594 0 1.046-.195 1.43-.605a9.78 9.78 0 0 1 .735-.76c.164-.161.316-.306.464-.466-.004.004-.004 0 0 0 .388-.403.388-.803-.004-1.191zM9.313 3.68a.516.516 0 0 1 .593-.418 5.863 5.863 0 0 1 3.177 1.647 5.87 5.87 0 0 1 1.647 3.177.514.514 0 0 1-.422.594c-.03.003-.057.007-.087.007a.51.51 0 0 1-.506-.426 4.855 4.855 0 0 0-1.362-2.626 4.825 4.825 0 0 0-2.626-1.361.509.509 0 0 1-.414-.595zm8.26 4.844c-.03.003-.058.007-.088.007a.51.51 0 0 1-.506-.425 8.624 8.624 0 0 0-2.424-4.678A8.645 8.645 0 0 0 9.88 1.004.516.516 0 0 1 9.457.41a.512.512 0 0 1 .59-.418 9.65 9.65 0 0 1 5.231 2.714 9.659 9.659 0 0 1 2.713 5.23.504.504 0 0 1-.418.588z"/></symbol><symbol viewBox="0 0 52.5 52.5" id="viber" xmlns="http://www.w3.org/2000/svg"><path d="M31.3 0h-10c-10.5 0-19 8.5-19 19v9c0 7.8 4.8 14.8 12 17.7v5.8c0 .4.2.8.6.9.1.1.3.1.4.1.2 0 .5-.1.7-.3l5.8-5.3h9.5c10.5 0 19-8.5 19-19v-9C50.3 8.5 41.7 0 31.3 0zm17 28c0 9.4-7.6 17-17 17h-9.9c-.2 0-.5.1-.7.3l-4.4 4V45c0-.4-.3-.8-.7-.9C8.8 41.6 4.3 35.2 4.3 28v-9c0-9.4 7.6-17 17-17h10c9.4 0 17 7.6 17 17v9z"/><path d="M39.5 30.5l-6.1-4c-.7-.4-1.5-.6-2.3-.4-.8.2-1.5.6-1.9 1.3l-.3.4c-2.7-.9-5.6-2-7.3-7.1l.7-.6c1.2-1.1 1.4-3 .3-4.2l-4.8-5.5c-.4-.4-1-.5-1.4-.1l-3 2.6c-2.6 2.3-1.4 5.7-1 6.8 0 0 0 .1.1.1.1.2 2.6 4.7 6.7 8.8 4.1 4.1 11.4 8 11.6 8.1.8.5 1.8.8 2.7.8 1.6 0 3.2-.8 4.2-2.3l2.2-3.4c.2-.4 0-1-.4-1.3zm-3.6 3.6c-.9 1.4-2.8 1.8-4.2.8-.1 0-7.4-3.8-11.2-7.8-3.6-3.7-6-7.7-6.3-8.3-.8-2.2-.7-3.6.5-4.6l2.3-2 4.2 4.8c.4.4.3 1-.1 1.4l-1.2 1.1c-.3.3-.4.7-.3 1 2.1 6.8 6.2 8.1 9.1 9.1l.3.4c.4.1.9 0 1.2-.4l.7-1.1c.1-.2.4-.4.6-.4.3-.1.5 0 .8.1l5.3 3.4-1.7 2.5zm-7.4-17.9c-.5-.2-1.1.2-1.2.7-.2.5.2 1.1.7 1.2 1.5.4 2.7 1.6 3.1 3.1.1.4.5.7 1 .7h.3c.5-.1.8-.7.7-1.2-.7-2.1-2.4-3.8-4.6-4.5z"/><path d="M36.1 22.2h.3c.5-.1.8-.7.7-1.2-1.2-4.2-4.5-7.5-8.7-8.7-.5-.2-1.1.2-1.2.7-.2.5.2 1.1.7 1.2 3.5 1 6.3 3.8 7.3 7.3.1.4.5.7.9.7z"/><path d="M28 7.6c-.5-.2-1.1.2-1.2.7-.2.5.2 1.1.7 1.2 6 1.7 10.7 6.5 12.4 12.4.1.4.5.7 1 .7h.3c.5-.1.8-.7.7-1.2-2-6.6-7.3-11.9-13.9-13.8z"/></symbol><symbol viewBox="0 0 470 470" id="whatsapp" xmlns="http://www.w3.org/2000/svg"><path d="M235 0C110.9 0 10 100.9 10 225c0 57.5 21.5 111.8 60.6 153.7l-34.7 77.2c-1.6 3.5-1 7.5 1.4 10.5 1.9 2.3 4.8 3.6 7.7 3.6.8 0 1.6-.1 2.3-.3l122.3-29.4c21.4 6.4 43.4 9.6 65.3 9.6 124.1 0 225-100.9 225-225S359.1 0 235 0zm0 430c-20.6 0-41.2-3.1-61.3-9.3-1.4-.6-2.8-.8-3.9-.8v.1c-.7 0-1.4.1-2.1.3L62.5 445.5l29.1-64.8c1.7-3.8.9-8.2-2-11.1C51.2 330.8 30 279.5 30 225c0-113 92-205 205-205s205 92 205 205-92 205-205 205z"/><path d="M299.7 226c-.1 0-.1 0 0 0-3.9-3.8-8.9-5.9-14.2-5.9-5.3 0-10.4 2.1-14.1 5.9l-14.1 14.1-42.4-42.4 14.1-14.1c7.8-7.8 7.8-20.5 0-28.3l-49.5-49.5c-3.8-3.8-8.8-5.9-14.1-5.9s-10.3 2.1-14.1 5.9l-46 46c-2.2 2.2-3.2 5.3-2.8 8.3.2 1.9 6.8 48.1 75.6 116.9 68.7 68.8 115 75.3 116.9 75.6.4.1.8.1 1.2.1 2.6 0 5.2-1 7.1-2.9l45.9-45.9c3.8-3.8 6-8.8 6-14.2 0-5.4-2.1-10.4-6-14.2L299.7 226zm35.2 63.7l-42 42c-12.3-3.3-49-16.9-100.8-68.8-51.4-51.4-65.4-88.5-68.9-100.9l42.1-42.1 49.5 49.6-21.2 21.2c-1.9 1.9-2.9 4.4-2.9 7.1s1.1 5.2 2.9 7.1l56.6 56.5c3.9 3.9 10.2 3.9 14.1 0l21.2-21.2s.1 0 .1.1l49.3 49.4z"/></symbol></svg>