<?xml version="1.0" encoding="utf-8"?><svg xmlns="http://www.w3.org/2000/svg" xmlns:xlink="http://www.w3.org/1999/xlink"><symbol viewBox="0 0 344.96 344.96" id="check" xmlns="http://www.w3.org/2000/svg"><g data-name="Слой 2"><path d="M321.85 86.24l-40-23.11-23.1-40H212.5L172.48 0l-40 23.11H86.24l-23.11 40-40 23.1v46.21L0 172.48l23.11 40v46.21l40 23.11 23.11 40h46.21l40 23.1 40-23.11h46.21l23.11-40 40-23.11V212.5l23.11-40-23.11-40V86.24zM156.91 243.07a16.79 16.79 0 0 1-23.34 0l-50.45-50.44a16.19 16.19 0 0 1 0-22.89l13.35-13.35a16.19 16.19 0 0 1 22.89 0l25.87 25.87 80.34-80.35a16.19 16.19 0 0 1 22.89 0l13.35 13.35a16.19 16.19 0 0 1 0 22.89z" data-name="Capa 1"/></g></symbol><symbol viewBox="0 0 512 512" id="check-mark" xmlns="http://www.w3.org/2000/svg"><path d="M369.2 174.8c7.8 7.8 7.8 20.5 0 28.3L235 337.2c-7.8 7.8-20.5 7.8-28.3 0l-63.9-63.9c-7.8-7.8-7.8-20.5 0-28.3 7.8-7.8 20.5-7.8 28.3 0l49.7 49.7 120-120c7.9-7.7 20.6-7.7 28.4.1zM512 256c0 141.5-114.5 256-256 256S0 397.5 0 256 114.5 0 256 0s256 114.5 256 256zm-40 0c0-119.4-96.6-216-216-216S40 136.6 40 256s96.6 216 216 216 216-96.6 216-216z"/></symbol><symbol id="error" viewBox="0 0 50 50" xml:space="preserve" xmlns="http://www.w3.org/2000/svg"><style>.cst1{fill:none;stroke:#fff;stroke-width:2;stroke-linecap:round;stroke-miterlimit:10}</style><circle cx="25" cy="25" r="25"/><path class="cst1" d="M16 34l9-9 9-9m-18 0l9 9 9 9"/></symbol><symbol viewBox="0 0 475 475" id="tap" xmlns="http://www.w3.org/2000/svg"><path d="M377.7 187.3h-.7c-9.1-.1-17.9 3.3-24.7 9.4-5.5-15.2-19.4-26.1-35.8-26.1-10 .1-19.6 4.2-26.5 11.4-6.4-12.9-19.2-21.7-33.9-21.7h-.7c-7.9-.1-15.6 2.4-21.8 7.3v-92c0-22.2-17.3-40.3-38.4-40.3-21 0-38.3 18.1-38.3 40.3l-.2 182.6-10.3-12.5c-9.1-11.3-22.4-18.3-36.8-19.3-14.1-1-28 3.9-38.4 13.6l-9 7.4c-2.9 2.4-3.7 6.5-2 9.8l87.4 168c16 30.7 46.4 49.9 79.4 49.9h98.5v-.1c49.9 0 90.4-43.3 90.5-96.5 0-23.8-.1-41.6-.1-55.9.1-38.5 0-52.7-.1-95.1.1-22.3-17.1-40.2-38.1-40.2zM400 322.4c0 14.4 0 32.2-.1 56 0 44.4-33.6 80.6-74.7 80.6h-98c-27 0-52-15.9-65.2-41.3L77.6 255.5l4.2-3.5.3-.3c7.2-6.7 16.8-10.2 26.6-9.6 10 .8 19.3 5.7 25.6 13.5l24.5 29.8c2.1 2.6 5.7 3.6 8.9 2.5s5.3-4.1 5.3-7.5V75.6c0-13.4 10.2-24.3 22.4-24.3s22.4 10.9 22.4 24.3v178.2c0 4.4 3.6 8 8 8s8-3.6 8-8v-54.4c0-12.9 9.9-23.1 21.8-23.1h.7c12.2 0 22.4 10.7 22.4 24.1v48.3c0 4.4 3.6 8 8 8s8-3.6 8-8v-37.9c0-13.4 9.7-24.3 22-24.3 12.2 0 21.9 10.9 21.9 24.3v35.8c0 4.4 3.6 8 8 8s8-3.6 8-8v-19.4c0-13.4 10.2-23.9 22.5-23.9h.7c12.2 0 22.2 10.7 22.2 24.1v95z"/><path d="M131.7 79.1c4.4 0 8-3.6 8-8 .1-30.5 24.9-55.1 55.4-55.1s55.2 24.6 55.4 55.1c0 4.4 3.6 8 8 8s8-3.6 8-8C266.3 31.8 234.4 0 195.1 0c-39.3 0-71.2 31.8-71.4 71.1 0 4.4 3.6 8 8 8z"/></symbol><symbol viewBox="0 0 512 512" id="viber" xmlns="http://www.w3.org/2000/svg"><path d="M490.5 180.7c0-48.1-18.8-93.4-53.1-127.6S357.9 0 309.8 0H202.7c-48.1 0-93.4 18.8-127.6 53.1C40.8 87.3 22 132.6 22 180.7v84.2c0 37.2 11.4 73.1 32.9 103.6 19 26.9 44.5 48 74.2 61.3v48.3c0 25 14 33.9 26 33.9 8.6 0 17.1-4.2 25.5-12.6l53.9-53.9h75.4c48.1 0 93.4-18.8 127.6-53.1 34.2-34.2 53.1-79.6 53.1-127.6l-.1-84.1zM309.8 415.6h-81.6c-4 0-7.8 1.6-10.6 4.4l-58.3 58.3-.2.2v-58.7c0-6.2-3.8-11.8-9.7-14C91.1 383.5 52 326.9 52 264.9v-84.2c0-40.1 15.7-77.9 44.3-106.4C124.8 45.7 162.6 30 202.7 30h107.1c40.1 0 77.9 15.7 106.4 44.3 28.6 28.6 44.3 66.4 44.3 106.4v84.2c0 83.1-67.6 150.7-150.7 150.7z"/><path d="M296.1 245.3c-5.9-5.9-15.4-5.9-21.2 0l-12.1 12.1-47-46.9 12.1-12.1c2.8-2.8 4.4-6.6 4.4-10.6s-1.6-7.8-4.4-10.6l-56.8-56.8c-2.8-2.8-6.6-4.4-10.6-4.4s-7.8 1.6-10.6 4.4l-39.8 39.8c-21.5 21.5-21.5 56.5 0 78l125 125c10.4 10.4 24.2 16.1 39 16.1s28.6-5.7 39-16.1l39.8-39.8c2.8-2.8 4.4-6.6 4.4-10.6s-1.6-7.8-4.4-10.6l-56.8-56.9zm-4.1 96.6c-4.7 4.7-11 7.3-17.8 7.3s-13.1-2.6-17.8-7.3l-125-125c-9.8-9.8-9.8-25.8 0-35.6l29.2-29.2 35.6 35.6-12.2 12.2c-2.8 2.8-4.4 6.6-4.4 10.6s1.6 7.8 4.4 10.6l68.2 68.2c5.9 5.9 15.4 5.9 21.2 0l12.1-12.1 35.6 35.6-29.1 29.1zM259.9 66.4c-8.3 0-15 6.7-15 15s6.7 15 15 15c34.3 0 66.6 13.4 90.9 37.6 24.3 24.3 37.6 56.5 37.6 90.9 0 8.3 6.7 15 15 15s15-6.7 15-15c0-42.3-16.5-82.2-46.4-112.1s-69.8-46.4-112.1-46.4z"/><path d="M324.1 224.9c0 8.3 6.7 15 15 15s15-6.7 15-15c0-52-42.3-94.3-94.3-94.3-8.3 0-15 6.7-15 15s6.7 15 15 15c35.5 0 64.3 28.8 64.3 64.3z"/></symbol><symbol viewBox="0 0 512 512" id="whatsapp" xmlns="http://www.w3.org/2000/svg"><path d="M439.3 72.7C392.4 25.8 330 0 263.7 0c-32.8 0-64.8 6.4-95 18.9-30.2 12.5-57.3 30.6-80.5 53.8-47 46.9-72.8 109.3-72.8 175.6 0 39.6 9.5 78.9 27.6 113.9L1.3 481.4c-2.9 8.4-.9 17.6 5.4 23.9 4.4 4.4 10.2 6.8 16.2 6.8 2.6 0 5.1-.4 7.7-1.3L149.8 469c35 18.1 74.3 27.6 113.9 27.6 66.3 0 128.7-25.8 175.6-72.7C486.2 377 512 314.6 512 248.3s-25.8-128.7-72.7-175.6zM418 402.6c-41.2 41.2-96 63.9-154.3 63.9-35.7 0-71.1-8.8-102.5-25.5-5.7-3-12.4-3.5-18.4-1.4L34.5 477.5l37.9-108.3c2.1-6 1.6-12.8-1.4-18.4-16.7-31.4-25.6-66.8-25.6-102.5 0-58.3 22.7-113.1 63.9-154.3 41.2-41.2 96-63.9 154.3-63.9C322 30 376.8 52.7 418 94c41.2 41.2 63.9 96 63.9 154.3S459.3 361.4 418 402.6z"/><path d="M356 270.5c-11.4-11.4-30-11.4-41.4 0L302.1 283c-31-16.9-56.1-42-73-73l12.5-12.5c11.4-11.4 11.4-30 0-41.4l-33.7-33.7c-11.4-11.4-30-11.4-41.4 0l-26.9 26.9c-15.4 15.4-16.2 41.9-2.2 74.7 12.2 28.4 34.5 59.7 62.8 87.9s59.5 50.6 87.9 62.8c15.6 6.7 29.7 10 41.9 10 13.5 0 24.7-4.1 32.8-12.2l26.9-26.9c5.5-5.5 8.6-12.9 8.6-20.7 0-7.8-3-15.2-8.6-20.7L356 270.5zm-14.5 80.8c-4.4 4.4-17.9 5.9-41.6-4.2-25-10.7-52.9-30.7-78.5-56.4s-45.7-53.5-56.4-78.5c-10.1-23.7-8.6-37.2-4.2-41.6l26.4-26.4 32.6 32.6-15.6 15.6c-7.1 7.1-8.8 17.8-4.2 26.7 20.6 40.3 52.7 72.5 93 93 8.9 4.5 19.6 2.8 26.7-4.2l15.6-15.6 32.6 32.6-26.4 26.4z"/></symbol></svg>