<?xml version="1.0" encoding="utf-8"?>
<!-- Generator: Adobe Illustrator 23.0.2, SVG Export Plug-In . SVG Version: 6.00 Build 0)  -->
<svg version="1.1" id="Capa_1" xmlns="http://www.w3.org/2000/svg" xmlns:xlink="http://www.w3.org/1999/xlink" x="0px" y="0px"
	 viewBox="0 0 480 480" style="enable-background:new 0 0 480 480;" xml:space="preserve">
<g>
	<g>
		<path d="M367.2,59.6c1.3-2.6,1.1-5.6-0.5-8l-32-48c-1.5-2.2-4-3.6-6.7-3.6H152c-4.4,0-8,3.6-8,8v8h-24c-4.4,0-8,3.6-8,8v32
			c0,4.4,3.6,8,8,8h24v8c0,4.4,3.6,8,8,8h57.9c-9.5,13.9-22.4,25.2-37.5,32.8l7.2,14.3c18.6-9.4,34.4-23.6,45.6-41.2l30.8,37V152
			h-16c-4.4,0-8,3.6-8,8v29.4l-98.7,136.7c-3.5,4.8-5.3,10.5-5.3,16.4V452c0,15.5,12.5,28,28,28h176c15.5,0,28-12.5,28-28V160
			c0-4.4-3.6-8-8-8h-16v-30.1L367.2,59.6z M144,48h-16V32h16V48z M344,452c0,6.6-5.4,12-12,12H156c-6.6,0-12-5.4-12-12V342.5
			c0-2.5,0.8-5,2.3-7L221,232h75v-16h-63.5l11.6-16H344L344,452L344,452z M344,168v16h-96v-16H344z M320.8,116.4
			c-0.5,1.1-0.8,2.3-0.8,3.6v32h-48v-32c0-1.9-0.7-3.7-1.9-5.1l-40-48c-1.5-1.8-3.8-2.9-6.1-2.9h-64V16h163.7l27,40.6L320.8,116.4z"
			/>
	</g>
</g>
<g>
	<g>
		<rect x="312" y="216" width="16" height="16"/>
	</g>
</g>
<g>
	<g>
		<path d="M312,296H208c-2.7,0-5.2,1.3-6.7,3.6l-32,48c-0.9,1.3-1.3,2.9-1.3,4.4v80c0,4.4,3.6,8,8,8h136c4.4,0,8-3.6,8-8V304
			C320,299.6,316.4,296,312,296z M304,424H184v-28.7l13.7-13.7c10.3-9.8,26.4-9.8,36.7,0c16.4,16.4,42.9,16.4,59.3,0
			c2.9-2.9,6.5-5,10.3-6.2V424z M304,358.8c-8.2,1.6-15.8,5.6-21.7,11.5c-10.1,10.1-26.5,10.1-36.7,0c-16.4-16.4-42.9-16.4-59.3,0
			l-2.3,2.3v-18.3l28.3-42.4H304V358.8z"/>
	</g>
</g>
</svg>
