<?xml version="1.0" encoding="utf-8"?>
<!-- Generator: Adobe Illustrator 23.0.2, SVG Export Plug-In . SVG Version: 6.00 Build 0)  -->
<svg version="1.1" id="Layer_3" xmlns="http://www.w3.org/2000/svg" xmlns:xlink="http://www.w3.org/1999/xlink" x="0px" y="0px"
	 viewBox="0 0 512 512" style="enable-background:new 0 0 512 512;" xml:space="preserve">
<path d="M448,48h-48c-22.1,0-40,17.9-40,40v24H8v352h440c30.9,0,56-25.1,56-56V104C504,73.1,478.9,48,448,48z M120,297.9L63.6,264
	l56.4-33.9V297.9z M120,393.9L63.6,360l56.4-33.9V393.9z M120,201.9l-64-38.4V160h64V201.9z M56,182.1l56.4,33.9L56,249.9L56,182.1z
	 M56,278.1l56.4,33.9L56,345.9L56,278.1z M56,374.1l64,38.4v3.5H56V374.1z M136,160h16v256h-16V160z M248,261.6l-40-60l-40,60v-35.2
	l40-60l40,60V261.6z M246.4,288L208,345.6L169.6,288l38.4-57.6L246.4,288z M168,314.4l40,60l40-60v35.2l-40,60l-40-60V314.4z
	 M248,197.6L222.9,160H248V197.6z M168,197.6V160h25.1L168,197.6z M168,378.4l25.1,37.6H168V378.4z M248,378.4V416h-25.1L248,378.4z
	 M264,160h16v256h-16V160z M296,230.1l56.4,33.9L296,297.9V230.1z M296,326.1l56.4,33.9L296,393.9V326.1z M360,345.9L303.6,312
	l56.4-33.9V345.9z M360,249.9L303.6,216l56.4-33.9V249.9z M360,163.5l-64,38.4V160h64V163.5z M296,412.5l64-38.4V392
	c0,9,3.1,17.3,8.2,24H296V412.5z M376,392c0-13.2,10.8-24,24-24h24v48h-8h-16C386.8,416,376,405.2,376,392z M448,448H24V128h336v16
	H40v288h360h16h24v-64h8c22.1,0,40,17.9,40,40S470.1,448,448,448z M448,352h-48c-9,0-17.3,3.1-24,8.2V88c0-13.2,10.8-24,24-24h48
	c22.1,0,40,17.9,40,40v264.9C477.8,358.5,463.7,352,448,352z"/>
<path d="M184,288c0,13.2,10.8,24,24,24s24-10.8,24-24s-10.8-24-24-24S184,274.8,184,288z M216,288c0,4.4-3.6,8-8,8s-8-3.6-8-8
	s3.6-8,8-8S216,283.6,216,288z"/>
<path d="M456,200h16v16h-16V200z"/>
<path d="M448,80h-24v16h24c4.4,0,8,3.6,8,8v80h16v-80C472,90.8,461.2,80,448,80z"/>
</svg>
