<?xml version="1.0" encoding="utf-8"?>
<!-- Generator: Adobe Illustrator 23.0.2, SVG Export Plug-In . SVG Version: 6.00 Build 0)  -->
<svg version="1.1" id="Capa_1" xmlns="http://www.w3.org/2000/svg" xmlns:xlink="http://www.w3.org/1999/xlink" x="0px" y="0px"
	 viewBox="0 0 512 512" style="enable-background:new 0 0 512 512;" xml:space="preserve">
<path d="M256,81c5.4,0,9.8-4.3,10-9.6c0-0.1,0-0.3,0-0.4c0-5.5-4.5-10-10-10s-10,4.5-10,10c0,0.1,0,0.3,0,0.4
	C246.2,76.7,250.6,81,256,81z"/>
<path d="M286,266c33.1,0,60-26.8,60-60c0-33.1-26.9-60-60-60h-90c-5.5,0-10,4.5-10,10v90h-10c-5.5,0-10,4.5-10,10
	c0,5.5,4.5,10,10,10h10v40h-10c-5.5,0-10,4.5-10,10s4.5,10,10,10h10v50c0,5.5,4.5,10,10,10s10-4.5,10-10v-50h70c5.5,0,10-4.5,10-10
	s-4.5-10-10-10h-70v-40H286z M206,166h80c22.1,0,40,17.9,40,40c0,22.1-17.9,40-40,40h-80V166z"/>
<path d="M256,512c137.9,0,256-118.1,256-256C512,118.4,394.1,0,256,0C118.1,0,0,118.1,0,256C0,393.8,118.1,512,256,512z M256,20
	c125.7,0,236,110.3,236,236S381.7,492,256,492S20,381.7,20,256S130.3,20,256,20z"/>
<path d="M256,452c104.2,0,196-91.1,196-196c0-89-66.8-170.4-153.9-191c-5.4-1.3-10.8,2-12,7.4c-1.3,5.4,2,10.8,7.4,12
	C372.5,103.2,432,176.9,432,256c0,93.8-82.2,176-176,176S80,349.8,80,256c0-79.1,59.5-152.8,138.5-171.6c5.4-1.3,8.7-6.7,7.4-12
	c-1.3-5.4-6.7-8.7-12-7.4C126.9,85.6,60,166.9,60,256C60,360.2,151.1,452,256,452z"/>
</svg>
