<svg xmlns="http://www.w3.org/2000/svg" width="19" height="15" viewBox="0 0 19 15"><g><g><path fill="#424242" d="M19 3.168v9.667c0 1.262-1.042 2.29-2.324 2.29H2.323C1.042 15.125 0 14.097 0 12.835v-9.67C0 1.9 1.042.874 2.323.874H16.68c1.282 0 2.324 1.03 2.32 2.293zm-1.062 9.667V3.168c0-.686-.566-1.244-1.262-1.244H2.323c-.696 0-1.262.558-1.262 1.244v9.667c0 .685.566 1.243 1.262 1.243H16.68c.696 0 1.262-.558 1.262-1.243zm-1.29-.59a.52.52 0 0 1 .02.74.531.531 0 0 1-.385.164.53.53 0 0 1-.365-.144L11.192 8.58 9.867 9.75a.532.532 0 0 1-.707.005L7.87 8.619 3.117 13a.532.532 0 0 1-.361.139.547.547 0 0 1-.39-.165.52.52 0 0 1 .024-.741l4.682-4.32L2.37 3.773a.518.518 0 0 1-.043-.741.536.536 0 0 1 .751-.042l5.087 4.486c.032.023.06.047.087.074 0 .004.004.008.007.012l1.25 1.1 6.409-5.668a.54.54 0 0 1 .75.038.521.521 0 0 1-.039.74L11.982 7.88z"/><path fill="#adafb3" d="M19 3.168v9.667c0 1.262-1.042 2.29-2.324 2.29H2.323C1.042 15.125 0 14.097 0 12.835v-9.67C0 1.9 1.042.874 2.323.874H16.68c1.282 0 2.324 1.03 2.32 2.293zm-1.062 9.667V3.168c0-.686-.566-1.244-1.262-1.244H2.323c-.696 0-1.262.558-1.262 1.244v9.667c0 .685.566 1.243 1.262 1.243H16.68c.696 0 1.262-.558 1.262-1.243zm-1.29-.59a.52.52 0 0 1 .02.74.531.531 0 0 1-.385.164.53.53 0 0 1-.365-.144L11.192 8.58 9.867 9.75a.532.532 0 0 1-.707.005L7.87 8.619 3.117 13a.532.532 0 0 1-.361.139.547.547 0 0 1-.39-.165.52.52 0 0 1 .024-.741l4.682-4.32L2.37 3.773a.518.518 0 0 1-.043-.741.536.536 0 0 1 .751-.042l5.087 4.486c.032.023.06.047.087.074 0 .004.004.008.007.012l1.25 1.1 6.409-5.668a.54.54 0 0 1 .75.038.521.521 0 0 1-.039.74L11.982 7.88z"/></g></g></svg>