<svg xmlns="http://www.w3.org/2000/svg" width="16" height="16" viewBox="0 0 16 16"><defs><linearGradient id="jteda" x1="8.01" x2="8" y1="16.01" y2="-.02" gradientUnits="userSpaceOnUse"><stop offset="0" stop-color="#8eb930"/><stop offset="1" stop-color="#a2d032"/></linearGradient></defs><g><g><path fill="#fff" d="M11.914 16.011a4.25 4.25 0 0 1-.228-.007c-1.262-.08-2.358-.534-3.174-.921a16.201 16.201 0 0 1-5.396-4.218l-.001-.001C1.876 9.376 1.038 7.977.478 6.461.096 5.433-.052 4.565.016 3.732A3.045 3.045 0 0 1 .924 1.78L2.052.652c.957-.911 2.29-.89 3.19-.007.199.183.417.404.625.62l1.2 1.202c.47.465.72 1.024.72 1.613 0 .584-.249 1.143-.72 1.613l-.268.272c-.14.143-.282.286-.427.429.152.26.344.535.593.85.799.976 1.634 1.738 2.547 2.317.029.018.059.035.09.052l.694-.692c.922-.921 2.313-.912 3.203.013l1.805 1.802c.933.931.94 2.252.018 3.212a216.829 216.829 0 0 1-1.069 1.086c-.575.63-1.381.977-2.34.977zm-2.758-2.274c.735.35 1.623.716 2.6.779l.158.003c.538 0 .935-.166 1.283-.536l.045-.05s.864-.874 1.002-1.018c.252-.262.458-.67.004-1.123l-1.814-1.813c-.357-.37-.731-.354-1.083-.004l-1.08 1.08a.748.748 0 0 1-.902.119c-.086-.05-.175-.094-.259-.136a4.76 4.76 0 0 1-.4-.219c-1.049-.665-2-1.53-2.91-2.643-.488-.617-.804-1.122-1.03-1.647a.745.745 0 0 1 .184-.848c.272-.246.527-.504.773-.756l.284-.286c.129-.129.283-.33.283-.559 0-.23-.152-.429-.28-.555L4.794 2.302c-.19-.196-.388-.398-.584-.578-.373-.363-.752-.352-1.115-.004L1.979 2.835a1.569 1.569 0 0 0-.475 1.017c-.048.607.07 1.272.375 2.091.5 1.354 1.257 2.613 2.382 3.964a14.718 14.718 0 0 0 4.896 3.83z"/><path fill="url(#jteda)" d="M11.914 16.011a4.25 4.25 0 0 1-.228-.007c-1.262-.08-2.358-.534-3.174-.921a16.201 16.201 0 0 1-5.396-4.218l-.001-.001C1.876 9.376 1.038 7.977.478 6.461.096 5.433-.052 4.565.016 3.732A3.045 3.045 0 0 1 .924 1.78L2.052.652c.957-.911 2.29-.89 3.19-.007.199.183.417.404.625.62l1.2 1.202c.47.465.72 1.024.72 1.613 0 .584-.249 1.143-.72 1.613l-.268.272c-.14.143-.282.286-.427.429.152.26.344.535.593.85.799.976 1.634 1.738 2.547 2.317.029.018.059.035.09.052l.694-.692c.922-.921 2.313-.912 3.203.013l1.805 1.802c.933.931.94 2.252.018 3.212a216.829 216.829 0 0 1-1.069 1.086c-.575.63-1.381.977-2.34.977zm-2.758-2.274c.735.35 1.623.716 2.6.779l.158.003c.538 0 .935-.166 1.283-.536l.045-.05s.864-.874 1.002-1.018c.252-.262.458-.67.004-1.123l-1.814-1.813c-.357-.37-.731-.354-1.083-.004l-1.08 1.08a.748.748 0 0 1-.902.119c-.086-.05-.175-.094-.259-.136a4.76 4.76 0 0 1-.4-.219c-1.049-.665-2-1.53-2.91-2.643-.488-.617-.804-1.122-1.03-1.647a.745.745 0 0 1 .184-.848c.272-.246.527-.504.773-.756l.284-.286c.129-.129.283-.33.283-.559 0-.23-.152-.429-.28-.555L4.794 2.302c-.19-.196-.388-.398-.584-.578-.373-.363-.752-.352-1.115-.004L1.979 2.835a1.569 1.569 0 0 0-.475 1.017c-.048.607.07 1.272.375 2.091.5 1.354 1.257 2.613 2.382 3.964a14.718 14.718 0 0 0 4.896 3.83z"/></g></g></svg>