<svg xmlns="http://www.w3.org/2000/svg" width="18" height="18" viewBox="0 0 18 18"><g><g><path fill="#424242" d="M16.322 13.25c.384.381.586.834.586 1.306 0 .468-.198.924-.575 1.316a14.8 14.8 0 0 1-.494.49c-.24.234-.468.45-.666.69-.004.008-.012.011-.015.019-.579.628-1.317.943-2.196.943-.076 0-.16-.003-.24-.007-1.304-.083-2.472-.574-3.347-.988a17.912 17.912 0 0 1-5.962-4.67C2.039 10.697 1.119 9.155.503 7.493.25 6.815-.078 5.78.014 4.669c.061-.688.339-1.283.826-1.77l1.293-1.305.008-.008c.38-.365.83-.559 1.293-.559.465 0 .906.194 1.275.56.247.228.487.47.715.708.114.121.236.243.354.36l1.039 1.039c.799.8.799 1.836 0 2.634l-.32.324c-.281.285-.57.582-.882.868.232.513.551 1.019 1.027 1.62.981 1.206 2.005 2.139 3.131 2.855.11.068.24.133.377.202.095.049.194.098.293.152l1.202-1.2c.384-.383.833-.585 1.301-.585.472 0 .917.205 1.286.59zm-.73.72l-2.097-2.097-.008-.007c-.118-.13-.312-.278-.548-.278-.24 0-.445.155-.574.285l-1.301 1.302c-.065.064-.263.261-.578.261a.822.822 0 0 1-.377-.094c-.015-.008-.03-.02-.046-.027-.11-.068-.24-.133-.377-.201-.152-.077-.311-.156-.467-.255-1.222-.773-2.329-1.78-3.379-3.075l-.004-.003c-.578-.736-.959-1.352-1.229-2.007l-.011-.034c-.069-.217-.13-.536.198-.864.004-.007.011-.011.019-.02.33-.295.635-.6.955-.928.11-.105.217-.216.327-.327.403-.403.403-.776 0-1.178l-1.039-1.04c-.121-.126-.243-.248-.361-.37-.232-.24-.453-.464-.685-.68L4 2.32c-.122-.122-.316-.266-.556-.266-.194 0-.392.095-.578.27L1.567 3.622a1.747 1.747 0 0 0-.525 1.13c-.057.697.073 1.436.427 2.383.574 1.552 1.442 3 2.739 4.563a16.914 16.914 0 0 0 5.615 4.399c.788.376 1.838.818 2.968.89.057.005.118.005.175.005.594 0 1.046-.195 1.43-.605a9.78 9.78 0 0 1 .735-.76c.164-.161.316-.306.464-.466-.004.004-.004 0 0 0 .388-.403.388-.803-.004-1.191zM9.313 3.68a.516.516 0 0 1 .593-.418 5.863 5.863 0 0 1 3.177 1.647 5.87 5.87 0 0 1 1.647 3.177.514.514 0 0 1-.422.594c-.03.003-.057.007-.087.007a.51.51 0 0 1-.506-.426 4.855 4.855 0 0 0-1.362-2.626 4.825 4.825 0 0 0-2.626-1.361.509.509 0 0 1-.414-.595zm8.26 4.844c-.03.003-.058.007-.088.007a.51.51 0 0 1-.506-.425 8.624 8.624 0 0 0-2.424-4.678 8.645 8.645 0 0 0-4.675-2.424.516.516 0 0 1-.423-.594.512.512 0 0 1 .59-.418 9.65 9.65 0 0 1 5.231 2.714 9.659 9.659 0 0 1 2.713 5.23.504.504 0 0 1-.418.588z"/><path fill="#fff" d="M16.322 13.25c.384.381.586.834.586 1.306 0 .468-.198.924-.575 1.316a14.8 14.8 0 0 1-.494.49c-.24.234-.468.45-.666.69-.004.008-.012.011-.015.019-.579.628-1.317.943-2.196.943-.076 0-.16-.003-.24-.007-1.304-.083-2.472-.574-3.347-.988a17.912 17.912 0 0 1-5.962-4.67C2.039 10.697 1.119 9.155.503 7.493.25 6.815-.078 5.78.014 4.669c.061-.688.339-1.283.826-1.77l1.293-1.305.008-.008c.38-.365.83-.559 1.293-.559.465 0 .906.194 1.275.56.247.228.487.47.715.708.114.121.236.243.354.36l1.039 1.039c.799.8.799 1.836 0 2.634l-.32.324c-.281.285-.57.582-.882.868.232.513.551 1.019 1.027 1.62.981 1.206 2.005 2.139 3.131 2.855.11.068.24.133.377.202.095.049.194.098.293.152l1.202-1.2c.384-.383.833-.585 1.301-.585.472 0 .917.205 1.286.59zm-.73.72l-2.097-2.097-.008-.007c-.118-.13-.312-.278-.548-.278-.24 0-.445.155-.574.285l-1.301 1.302c-.065.064-.263.261-.578.261a.822.822 0 0 1-.377-.094c-.015-.008-.03-.02-.046-.027-.11-.068-.24-.133-.377-.201-.152-.077-.311-.156-.467-.255-1.222-.773-2.329-1.78-3.379-3.075l-.004-.003c-.578-.736-.959-1.352-1.229-2.007l-.011-.034c-.069-.217-.13-.536.198-.864.004-.007.011-.011.019-.02.33-.295.635-.6.955-.928.11-.105.217-.216.327-.327.403-.403.403-.776 0-1.178l-1.039-1.04c-.121-.126-.243-.248-.361-.37-.232-.24-.453-.464-.685-.68L4 2.32c-.122-.122-.316-.266-.556-.266-.194 0-.392.095-.578.27L1.567 3.622a1.747 1.747 0 0 0-.525 1.13c-.057.697.073 1.436.427 2.383.574 1.552 1.442 3 2.739 4.563a16.914 16.914 0 0 0 5.615 4.399c.788.376 1.838.818 2.968.89.057.005.118.005.175.005.594 0 1.046-.195 1.43-.605a9.78 9.78 0 0 1 .735-.76c.164-.161.316-.306.464-.466-.004.004-.004 0 0 0 .388-.403.388-.803-.004-1.191zM9.313 3.68a.516.516 0 0 1 .593-.418 5.863 5.863 0 0 1 3.177 1.647 5.87 5.87 0 0 1 1.647 3.177.514.514 0 0 1-.422.594c-.03.003-.057.007-.087.007a.51.51 0 0 1-.506-.426 4.855 4.855 0 0 0-1.362-2.626 4.825 4.825 0 0 0-2.626-1.361.509.509 0 0 1-.414-.595zm8.26 4.844c-.03.003-.058.007-.088.007a.51.51 0 0 1-.506-.425 8.624 8.624 0 0 0-2.424-4.678 8.645 8.645 0 0 0-4.675-2.424.516.516 0 0 1-.423-.594.512.512 0 0 1 .59-.418 9.65 9.65 0 0 1 5.231 2.714 9.659 9.659 0 0 1 2.713 5.23.504.504 0 0 1-.418.588z"/></g></g></svg>