<?xml version="1.0" encoding="utf-8"?>
<!-- Generator: Adobe Illustrator 23.0.2, SVG Export Plug-In . SVG Version: 6.00 Build 0)  -->
<svg version="1.1" id="Слой_1" xmlns="http://www.w3.org/2000/svg" xmlns:xlink="http://www.w3.org/1999/xlink" x="0px" y="0px"
	 viewBox="0 0 512 512" style="enable-background:new 0 0 512 512;" xml:space="preserve">
<path d="M490.5,180.7c0-48.1-18.8-93.4-53.1-127.6S357.9,0,309.8,0H202.7c0,0,0,0,0,0c-48.1,0-93.4,18.8-127.6,53.1
	C40.8,87.3,22,132.6,22,180.7v84.2c0,37.2,11.4,73.1,32.9,103.6c19,26.9,44.5,48,74.2,61.3v48.3c0,25,14,33.9,26,33.9
	c8.6,0,17.1-4.2,25.5-12.6l53.9-53.9l75.4,0c48.1,0,93.4-18.8,127.6-53.1c34.2-34.2,53.1-79.6,53.1-127.6L490.5,180.7z M309.8,415.6
	l-81.6,0c-4,0-7.8,1.6-10.6,4.4l-58.3,58.3c-0.1,0.1-0.2,0.2-0.2,0.2c0-0.1,0-0.2,0-0.3v-58.4c0-6.2-3.8-11.8-9.7-14
	C91.1,383.5,52,326.9,52,264.9v-84.2c0-40.1,15.7-77.9,44.3-106.4C124.8,45.7,162.6,30,202.7,30h107.1c40.1,0,77.9,15.7,106.4,44.3
	c28.6,28.6,44.3,66.4,44.3,106.4l0,84.2C460.5,348,392.9,415.6,309.8,415.6z"/>
<path d="M296.1,245.3c-5.9-5.9-15.4-5.9-21.2,0l-12.1,12.1l-47-46.9l12.1-12.1c2.8-2.8,4.4-6.6,4.4-10.6c0-4-1.6-7.8-4.4-10.6
	l-56.8-56.8c-2.8-2.8-6.6-4.4-10.6-4.4c-4,0-7.8,1.6-10.6,4.4l-39.8,39.8c-21.5,21.5-21.5,56.5,0,78l125,125
	c10.4,10.4,24.2,16.1,39,16.1c14.8,0,28.6-5.7,39-16.1l39.8-39.8c2.8-2.8,4.4-6.6,4.4-10.6c0-4-1.6-7.8-4.4-10.6L296.1,245.3z
	 M292,341.9c-4.7,4.7-11,7.3-17.8,7.3s-13.1-2.6-17.8-7.3l-125-125c-9.8-9.8-9.8-25.8,0-35.6l29.2-29.2l35.6,35.6L184,199.9
	c-2.8,2.8-4.4,6.6-4.4,10.6c0,4,1.6,7.8,4.4,10.6l68.2,68.2c5.9,5.9,15.4,5.9,21.2,0l12.1-12.1l35.6,35.6L292,341.9z"/>
<path d="M259.9,66.4c-8.3,0-15,6.7-15,15c0,8.3,6.7,15,15,15c34.3,0,66.6,13.4,90.9,37.6c24.3,24.3,37.6,56.5,37.6,90.9
	c0,8.3,6.7,15,15,15c8.3,0,15-6.7,15-15c0-42.3-16.5-82.2-46.4-112.1S302.2,66.4,259.9,66.4z"/>
<path d="M324.1,224.9c0,8.3,6.7,15,15,15c8.3,0,15-6.7,15-15c0-52-42.3-94.3-94.3-94.3c-8.3,0-15,6.7-15,15s6.7,15,15,15
	C295.3,160.6,324.1,189.4,324.1,224.9z"/>
</svg>
