<?xml version="1.0" encoding="utf-8"?>
<!-- Generator: Adobe Illustrator 23.0.2, SVG Export Plug-In . SVG Version: 6.00 Build 0)  -->
<svg version="1.1" id="Layer_1" xmlns="http://www.w3.org/2000/svg" xmlns:xlink="http://www.w3.org/1999/xlink" x="0px" y="0px"
	 viewBox="0 0 470 470" style="enable-background:new 0 0 470 470;" xml:space="preserve">
<g>
	<g>
		<g>
			<path d="M235,0C110.9,0,10,100.9,10,225c0,57.5,21.5,111.8,60.6,153.7l-34.7,77.2c-1.6,3.5-1,7.5,1.4,10.5
				c1.9,2.3,4.8,3.6,7.7,3.6c0.8,0,1.6-0.1,2.3-0.3l122.3-29.4c21.4,6.4,43.4,9.6,65.3,9.6c124.1,0,225-100.9,225-225S359.1,0,235,0
				z M235,430c-20.6,0-41.2-3.1-61.3-9.3c-1.4-0.6-2.8-0.8-3.9-0.8v0.1c-0.7,0-1.4,0.1-2.1,0.3L62.5,445.5l29.1-64.8
				c1.7-3.8,0.9-8.2-2-11.1C51.2,330.8,30,279.5,30,225c0-113,92-205,205-205s205,92,205,205S348,430,235,430z"/>
			<path d="M299.7,226C299.6,226,299.6,226,299.7,226c-3.9-3.8-8.9-5.9-14.2-5.9c-5.3,0-10.4,2.1-14.1,5.9l-14.1,14.1l-42.4-42.4
				l14.1-14.1c7.8-7.8,7.8-20.5,0-28.3l-49.5-49.5c-3.8-3.8-8.8-5.9-14.1-5.9s-10.3,2.1-14.1,5.9l-46,46c-2.2,2.2-3.2,5.3-2.8,8.3
				c0.2,1.9,6.8,48.1,75.6,116.9c68.7,68.8,115,75.3,116.9,75.6c0.4,0.1,0.8,0.1,1.2,0.1c2.6,0,5.2-1,7.1-2.9l45.9-45.9
				c3.8-3.8,6-8.8,6-14.2c0-5.4-2.1-10.4-6-14.2L299.7,226z M334.9,289.7l-42,42c-12.3-3.3-49-16.9-100.8-68.8
				c-51.4-51.4-65.4-88.5-68.9-100.9l42.1-42.1l49.5,49.6l-21.2,21.2c-1.9,1.9-2.9,4.4-2.9,7.1s1.1,5.2,2.9,7.1l56.6,56.5
				c3.9,3.9,10.2,3.9,14.1,0l21.2-21.2c0,0,0.1,0,0.1,0.1L334.9,289.7C334.9,289.7,334.9,289.7,334.9,289.7
				C334.9,289.7,334.9,289.7,334.9,289.7z"/>
		</g>
	</g>
</g>
</svg>
